<svg xmlns="http://www.w3.org/2000/svg" version="1.1" xmlns:xlink="http://www.w3.org/1999/xlink" xmlns:svgjs="http://svgjs.dev/svgjs" width="1000" height="1000"><g clip-path="url(#SvgjsClipPath1268)"><rect width="1000" height="1000" fill="#ffffff"></rect><g transform="matrix(2.7777777777777777,0,0,2.7777777777777777,0,0)"><svg xmlns="http://www.w3.org/2000/svg" version="1.1" xmlns:xlink="http://www.w3.org/1999/xlink" xmlns:svgjs="http://svgjs.dev/svgjs" width="360px" height="360px"><svg width="360px" height="360px" viewBox="0 0 360 360" version="1.1" xmlns="http://www.w3.org/2000/svg" xmlns:xlink="http://www.w3.org/1999/xlink">
    <title>Group 3</title>
    <g id="Page-1" stroke="none" stroke-width="1" fill="none" fill-rule="evenodd">
        <g id="Shrinked-logo-Copy-2" transform="translate(-3872.000000, -260.000000)">
            <g id="Group-3" transform="translate(3872.000000, 260.000000)">
                <rect id="Rectangle-Copy-4" fill="#0D0D0E" x="0" y="0" width="360" height="360" rx="25"></rect>
                <g id="noun-make-smaller-3547897-copy-3" transform="translate(64.000000, 63.000000)" fill="#FAF6EF" fill-rule="nonzero" stroke="#FAF6EF" stroke-width="2">
                    <path d="M216.289809,0 L157.646497,58.6433121 L157.646497,12.2961783 L134,12.2961783 L134,87.1767516 C134,93.7065514 139.293449,99 145.823248,99 L220.703822,99 L220.703822,75.3535032 L174.356688,75.3535032 L233,16.7101911 L216.289809,0 Z" id="Path"></path>
                    <path d="M0,100 L23.0769231,100 L23.0769231,42.3076923 C23.0769231,31.6868317 31.6868317,23.0769231 42.3076923,23.0769231 L100,23.0769231 L100,0 L42.3076923,0 C18.941799,0 0,18.941799 0,42.3076923 L0,100 Z" id="Path"></path>
                    <path d="M232,190.692308 L232,133 L208.923077,133 L208.923077,190.692308 C208.923077,201.313168 200.313168,209.923077 189.692308,209.923077 L132,209.923077 L132,233 L189.692308,233 C200.913005,233 211.674132,228.542595 219.608364,220.608364 C227.542595,212.674132 232,201.913005 232,190.692308 Z" id="Path"></path>
                    <path d="M16.7101911,234 L75.3535032,175.356688 L75.3535032,221.703822 L99,221.703822 L99,146.823248 C99,140.293449 93.7065514,135 87.1767516,135 L12.2961783,135 L12.2961783,158.646497 L58.6433121,158.646497 L0,217.289809 L16.7101911,234 Z" id="Path"></path>
                </g>
            </g>
        </g>
    </g>
</svg></svg></g></g><defs><clipPath id="SvgjsClipPath1268"><rect width="1000" height="1000" x="0" y="0" rx="100" ry="100"></rect></clipPath></defs></svg>