<svg width="33" height="40" viewBox="0 0 33 40" fill="none" xmlns="http://www.w3.org/2000/svg">
<path d="M12.8084 8.20912L13.9595 11.2797C15.2397 14.6876 18.0349 17.3707 21.5848 18.5996L24.7835 19.7046C25.0722 19.8044 25.0722 20.1968 24.7835 20.2967L21.5848 21.4017C18.0347 22.6306 15.2396 25.3138 13.9595 28.7216L12.8084 31.7922C12.7044 32.0693 12.2956 32.0693 12.1916 31.7922L11.0405 28.7216C9.76033 25.3137 6.96512 22.6305 3.41517 21.4017L0.216502 20.2967C-0.0721673 20.1969 -0.0721673 19.8044 0.216502 19.7046L3.41517 18.5996C6.96525 17.3707 9.76037 14.6874 11.0405 11.2797L12.1916 8.20912C12.2956 7.93029 12.7044 7.93029 12.8084 8.20912Z" fill="black"/>
<path d="M27.1478 0.105752L27.7017 1.63977C28.3167 3.342 29.6572 4.68405 31.3613 5.29904L32.8955 5.85284C33.0348 5.90381 33.0348 6.09917 32.8955 6.14844L31.3613 6.70223C29.6589 7.31722 28.3167 8.65758 27.7017 10.3615L27.1478 11.8955C27.0968 12.0348 26.9015 12.0348 26.8522 11.8955L26.2983 10.3615C25.6833 8.65928 24.3428 7.31722 22.6387 6.70223L21.1045 6.14844C20.9652 6.09747 20.9652 5.90211 21.1045 5.85284L22.6387 5.29904C24.3411 4.68405 25.6833 3.3437 26.2983 1.63977L26.8522 0.105752C26.9015 -0.0352506 27.0985 -0.0352506 27.1478 0.105752Z" fill="black"/>
<path d="M27.1478 27.1132L27.7017 28.7752C28.3167 30.6195 29.6572 32.0735 31.3613 32.7399L32.8955 33.3399C33.0348 33.3951 33.0348 33.6068 32.8955 33.6601L31.3613 34.2601C29.6589 34.9265 28.3167 36.3787 27.7017 38.2248L27.1478 39.8868C27.0968 40.0377 26.9015 40.0377 26.8522 39.8868L26.2983 38.2248C25.6833 36.3805 24.3428 34.9265 22.6387 34.2601L21.1045 33.6601C20.9652 33.6049 20.9652 33.3932 21.1045 33.3399L22.6387 32.7399C24.3411 32.0735 25.6833 30.6213 26.2983 28.7752L26.8522 27.1132C26.9015 26.9623 27.0985 26.9623 27.1478 27.1132Z" fill="black"/>
</svg>
