<svg width="18" height="16" viewBox="0 0 18 16" fill="none" xmlns="http://www.w3.org/2000/svg">
<path d="M12.4654 0H5.18162C2.325 0 0 2.41063 0 5.37246V10.18C0 13.1418 2.325 15.5525 5.18162 15.5525H12.4654C15.3221 15.5525 17.6471 13.1418 17.6471 10.18V5.37246C17.6471 2.41063 15.3221 0 12.4654 0ZM16.0346 10.18C16.0346 12.2201 14.4331 13.8829 12.4632 13.8829H5.18162C3.21397 13.8829 1.6125 12.2224 1.6125 10.18V5.37246C1.6125 3.33234 3.21397 1.67189 5.18162 1.67189H12.4654C14.4331 1.67189 16.0368 3.33234 16.0368 5.37246V10.18H16.0346Z" fill="#94A3B8"/>
<path d="M11.5657 3.77612L8.84807 6.59386L6.13042 3.77612L4.99219 4.95857L7.70983 7.77631L4.99219 10.594L6.13042 11.7765L8.84807 8.95875L11.5657 11.7765L12.7062 10.594L9.98851 7.77631L12.7062 4.95857L11.5657 3.77612Z" fill="#94A3B8"/>
</svg>
