<svg width="18" height="141" viewBox="0 0 18 141" fill="none" xmlns="http://www.w3.org/2000/svg">
<path d="M10.35 0H7.65C3.43125 0 0 3.48787 0 7.77623C0 12.0646 3.43125 15.5525 7.65 15.5525H10.35C14.5687 15.5525 18 12.0646 18 7.77623C18 3.48787 14.5687 0 10.35 0ZM8.55225 10.9416C8.39925 11.0971 8.19 11.1863 7.97175 11.1863C7.7535 11.1863 7.54425 11.0971 7.39125 10.9416L4.383 7.88372L5.54625 6.70357L7.97175 9.16909L12.4537 4.61085L13.617 5.79329L8.55225 10.9416Z" fill="#B5D8A0"/>
<path d="M10.35 32.1418H7.65C3.43125 32.1418 0 35.6297 0 39.9181C0 44.2064 3.43125 47.6943 7.65 47.6943H10.35C14.5687 47.6943 18 44.2064 18 39.9181C18 35.6297 14.5687 32.1418 10.35 32.1418ZM8.55225 43.0835C8.39925 43.239 8.19 43.3282 7.97175 43.3282C7.7535 43.3282 7.54425 43.239 7.39125 43.0835L4.383 40.0256L5.54625 38.8454L7.97175 41.3109L12.4537 36.7527L13.617 37.9351L8.55225 43.0835Z" fill="#B5D8A0"/>
<path d="M10.35 61H7.65C3.43125 61 0 64.4879 0 68.7762C0 73.0646 3.43125 76.5525 7.65 76.5525H10.35C14.5687 76.5525 18 73.0646 18 68.7762C18 64.4879 14.5687 61 10.35 61ZM8.55225 71.9416C8.39925 72.0971 8.19 72.1863 7.97175 72.1863C7.7535 72.1863 7.54425 72.0971 7.39125 71.9416L4.383 68.8837L5.54625 67.7036L7.97175 70.1691L12.4537 65.6108L13.617 66.7933L8.55225 71.9416Z" fill="#B5D8A0"/>
<path d="M10.35 93H7.65C3.43125 93 0 96.4879 0 100.776C0 105.065 3.43125 108.552 7.65 108.552H10.35C14.5687 108.552 18 105.065 18 100.776C18 96.4879 14.5687 93 10.35 93ZM8.55225 103.942C8.39925 104.097 8.19 104.186 7.97175 104.186C7.7535 104.186 7.54425 104.097 7.39125 103.942L4.383 100.884L5.54625 99.7036L7.97175 102.169L12.4537 97.6108L13.617 98.7933L8.55225 103.942Z" fill="#B5D8A0"/>
<path d="M10.35 125H7.65C3.43125 125 0 128.488 0 132.776C0 137.065 3.43125 140.552 7.65 140.552H10.35C14.5687 140.552 18 137.065 18 132.776C18 128.488 14.5687 125 10.35 125ZM8.55225 135.942C8.39925 136.097 8.19 136.186 7.97175 136.186C7.7535 136.186 7.54425 136.097 7.39125 135.942L4.383 132.884L5.54625 131.704L7.97175 134.169L12.4537 129.611L13.617 130.793L8.55225 135.942Z" fill="#B5D8A0"/>
</svg>
