<?xml version="1.0" encoding="UTF-8"?>
<svg width="4109px" height="4156px" viewBox="0 0 4109 4156" version="1.1" xmlns="http://www.w3.org/2000/svg" xmlns:xlink="http://www.w3.org/1999/xlink">
    <title>Group</title>
    <g id="Page-1" stroke="none" stroke-width="1" fill="none" fill-rule="evenodd">
        <g id="Artboard-Copy-17" transform="translate(-2055.000000, -1952.000000)" fill="#000000" fill-rule="nonzero" stroke="#000000" stroke-width="8">
            <g id="Group" transform="translate(2061.000000, 1958.000000)">
                <path d="M203.75713,0 L0,202.309846 L1331.21847,1588.27585 L622.56071,1588.27585 L622.56071,1876.00541 L1677.3035,1876.00541 L1821.13206,1876.00541 L1821.13206,1732.14063 L1821.13206,677.132243 L1533.47494,677.132243 L1533.47494,1384.46741 L203.75713,0 Z M3893.24287,95.6787591 L2604.77876,1384.46741 L2604.77876,677.132243 L2317.12164,677.132243 L2317.12164,1732.14063 L2317.12164,1876.00541 L2460.9502,1876.00541 L3515.69289,1876.00541 L3515.69289,1588.27585 L2807.03533,1588.27585 L4097,297.988605 L3893.24287,95.6787591 Z M622.560758,2365.17434 L622.560758,2652.9039 L1329.71786,2652.9039 L41.2536279,3941.69255 L245.010758,4144 L1533.47499,2855.21135 L1533.47499,3564.0475 L1821.13211,3564.0475 L1821.13211,2509.03912 L1821.13211,2365.17434 L1677.30355,2365.17434 L622.560758,2365.17434 Z M2317.12164,2509.03912 L2317.12164,3564.0475 L2604.77881,3564.0475 L2604.77881,2855.21135 L3788.60816,4060.27939 L3992.36529,3857.97194 L2808.53589,2652.9039 L3515.69289,2652.9039 L3515.69289,2365.17434 L2460.9502,2365.17434 L2317.12164,2365.17434 L2317.12164,2509.03912 Z" id="Shape"></path>
            </g>
        </g>
    </g>
</svg>