<svg width="29" height="28" viewBox="0 0 29 28" fill="none" xmlns="http://www.w3.org/2000/svg">
<path fill-rule="evenodd" clip-rule="evenodd" d="M6.27208 24.2063L6.27206 27.5999H8.22794V24.2063C8.22794 22.882 9.39058 21.8085 10.8248 21.8085H10.8318H14.5H18.1679H18.1753C19.6094 21.8085 20.7721 22.882 20.7721 24.2063V27.5999H22.7279V24.2063C22.7279 22.882 23.8906 21.8085 25.3248 21.8085H25.3318H29V20.0026H25.3318H25.3248C23.8906 20.0026 22.7279 18.9291 22.7279 17.6048V14.2112V10.8176C22.7279 9.49327 23.8906 8.41974 25.3248 8.41974L25.3318 8.41975H29V6.61379H25.3318H25.3248C23.8906 6.61379 22.7279 5.54025 22.7279 4.21599V0.822388L20.7721 0.822388V4.21599C20.7721 5.54025 19.6094 6.61379 18.1753 6.61379H18.1682H14.5H10.8318H10.8248C9.39058 6.61379 8.22794 5.54025 8.22794 4.21599V0.822388L6.27206 0.822388V4.21599C6.27206 5.54025 5.10942 6.61381 3.67524 6.61381L3.66818 6.61379H0L1.08823e-08 8.41975H3.66798L3.67524 8.41974C5.10942 8.41974 6.27208 9.49327 6.27208 10.8176L6.27206 14.2112L6.27208 17.6048C6.27208 18.9291 5.10942 20.0026 3.67524 20.0026H3.66818H0L1.08823e-08 21.8085H3.66798H3.67524C5.10942 21.8085 6.27208 22.882 6.27208 24.2063ZM20.7721 14.2112V10.8176C20.7721 9.49327 19.6094 8.41974 18.1753 8.41974L18.1679 8.41975H14.5H10.8318L10.8248 8.41974C9.39058 8.41974 8.22794 9.49327 8.22794 10.8176V14.2112V17.6048C8.22794 18.9291 9.39058 20.0026 10.8248 20.0026H10.8318H14.5H18.1682H18.1753C19.6094 20.0026 20.7721 18.9291 20.7721 17.6048V14.2112Z" fill="black"/>
</svg>
