<svg width="21" height="20" viewBox="0 0 21 20" fill="none" xmlns="http://www.w3.org/2000/svg">
<path fill-rule="evenodd" clip-rule="evenodd" d="M10.4932 0C8.9858 0 7.53411 0.609919 6.45815 1.70862C5.59907 2.58611 5.03531 3.71852 4.84338 4.93849C3.66016 5.1281 2.55348 5.69589 1.68933 6.57758C0.61149 7.67734 0 9.17739 0 10.7492C0 12.3209 0.61149 13.821 1.68933 14.9207C2.76518 16.0184 4.21687 16.6293 5.72334 16.6293H6.43028C6.95726 16.6293 7.38482 16.1774 7.38482 15.6181C7.38482 15.0598 6.95726 14.6068 6.43028 14.6068H5.72334C4.70119 14.6068 3.72675 14.1917 3.01372 13.4638C2.30179 12.738 1.90905 11.7605 1.90905 10.7493C1.90905 9.73909 2.30181 8.76153 3.01372 8.03479C3.72665 7.30689 4.70106 6.89183 5.72334 6.89183C6.25131 6.89183 6.67788 6.43887 6.67788 5.88056C6.67788 4.86929 7.07163 3.89278 7.78254 3.16604C8.49547 2.43814 9.46989 2.02308 10.4929 2.02308C11.5161 2.02308 12.4895 2.43814 13.2025 3.16604C13.9145 3.89289 14.3072 4.8694 14.3072 5.88056C14.3072 6.43887 14.7348 6.89183 15.2617 6.89183H15.2767C16.2988 6.89183 17.2733 7.30689 17.9863 8.03479C18.6982 8.76164 19.0909 9.7392 19.0909 10.7493C19.0909 11.7606 18.6982 12.7381 17.9863 13.4638C17.2734 14.1917 16.2989 14.6068 15.2767 14.6068H14.7427C14.2157 14.6068 13.7882 15.0598 13.7882 15.6181C13.7882 16.1774 14.2157 16.6293 14.7427 16.6293H15.2767C16.7831 16.6293 18.2347 16.0184 19.3107 14.9207C20.3885 13.821 21 12.3209 21 10.7492C21 9.17739 20.3885 7.67731 19.3107 6.57758C18.4436 5.69166 17.331 5.12389 16.1429 4.93638C15.95 3.7176 15.3862 2.58624 14.5281 1.70867C13.4522 0.609973 11.9997 0 10.4932 0ZM11.4547 18.9887C11.4547 19.5481 11.0271 20 10.5001 20C9.97315 20 9.54559 19.5481 9.54559 18.9887V10.277L8.00838 11.9824C7.64445 12.3859 7.04091 12.4017 6.65909 12.0151C6.27827 11.6295 6.26335 10.9901 6.62827 10.5856L9.81006 7.0545C9.99003 6.85435 10.2396 6.74162 10.5001 6.74162C10.7606 6.74162 11.0102 6.85434 11.1901 7.0545L14.3719 10.5856C14.7359 10.9901 14.7219 11.6295 14.3411 12.0151C13.9593 12.4017 13.3558 12.3859 12.9918 11.9824L11.4546 10.277L11.4547 18.9887Z" fill="#3D3D3D"/>
</svg>
