<svg width="11" height="12" viewBox="0 0 11 12" fill="none" xmlns="http://www.w3.org/2000/svg">
<path d="M7.69658 3.24378L10.5449 5.99976L7.69658 8.75575L6.84829 7.93495L8.24204 6.58637H4.24204V5.41372H8.24204L6.84829 4.06514L7.69658 3.24434V3.24378ZM7.27215 1.30859H1.21193V10.6909H7.27273V9.51828H8.48465V10.6909C8.48465 11.3358 7.9392 11.8636 7.27273 11.8636L1.21193 11.8641C0.545454 11.8641 0 11.3364 0 10.6915V1.30858C0 0.663707 0.545454 0.135928 1.21193 0.135928H7.27273C7.9392 0.135928 8.48465 0.663707 8.48465 1.30858V2.48123H7.27273V1.30858L7.27215 1.30859Z" fill="white"/>
</svg>
