<svg width="22" height="17" viewBox="0 0 22 17" fill="none" xmlns="http://www.w3.org/2000/svg">
<path d="M1.68266 15.9979C1.32719 15.9963 1.03404 15.7191 1.01045 15.3634V15.3617C0.979283 15.3626 1.02983 2.76967 1.00877 2.75626C1.01045 1.78711 1.79385 1.00133 2.76005 1.00049C2.7828 1.00218 7.41328 0.998798 7.43355 1.00049C8.57749 1.00049 8.99867 1.96455 9.27834 2.60418C9.56643 3.26238 9.70964 3.39249 9.90676 3.40263H15.7057L15.7066 3.40179C16.6728 3.40348 17.4562 4.18926 17.457 5.1584V8.15376H19.2512C19.9024 8.16136 20.4979 8.52723 20.7995 9.10683C21.1011 9.68646 21.0598 10.3852 20.6934 10.926L17.334 15.7117C17.2077 15.8908 17.0021 15.9981 16.7831 15.9981C16.7781 16.004 1.68786 15.9939 1.6829 15.9981L1.68266 15.9979ZM2.97991 14.6461H16.4335L19.589 10.1502C19.6766 10.0243 19.6867 9.86041 19.6151 9.72522C19.5444 9.58919 19.4037 9.5047 19.2512 9.50554H6.79677C6.66114 9.5047 6.53394 9.57145 6.4573 9.68383L2.97991 14.6461ZM7.42503 2.35229C7.42588 2.34891 2.76081 2.35483 2.75995 2.35229C2.53757 2.35229 2.35729 2.53311 2.35645 2.75617V13.1843L5.3561 8.90219C5.68461 8.43072 6.22289 8.15104 6.79655 8.15359H16.109V5.15823C16.109 4.93518 15.9288 4.75435 15.7064 4.75351H9.89665C8.74766 4.75351 8.32478 3.7869 8.04513 3.14645C7.75957 2.49585 7.64838 2.35221 7.42598 2.35221L7.42503 2.35229Z" fill="#3D3D3D" stroke="#3D3D3D" stroke-width="0.4"/>
</svg>
