<svg width="39" height="37" viewBox="0 0 39 37" fill="none" xmlns="http://www.w3.org/2000/svg">
<path fill-rule="evenodd" clip-rule="evenodd" d="M0 8.83018H5.3625H5.46V8.82915C7.73042 8.78131 9.555 7.06689 9.555 4.95898V0.00744629H10.725V5.04901C10.725 7.1373 12.5584 8.83018 14.82 8.83018C17.0816 8.83018 18.915 7.1373 18.915 5.04901V0.00744629H20.085V5.04901C20.085 7.1373 21.9184 8.83018 24.18 8.83018C26.4416 8.83018 28.275 7.1373 28.275 5.04901V0.00744629H29.64V5.04901C29.64 7.1373 31.4734 8.83018 33.735 8.83018H39V9.91051H33.54C31.2784 9.91051 29.445 11.6034 29.445 13.6917C29.445 15.78 31.2784 17.4729 33.54 17.4729H39V18.5532H33.54C31.2784 18.5532 29.445 20.2461 29.445 22.3344C29.445 24.4227 31.2784 26.1155 33.54 26.1155H39V27.1959H33.735C31.4734 27.1959 29.64 28.8888 29.64 30.977V31.1571V36.0186H28.275V30.977C28.275 28.8888 26.4416 27.1959 24.18 27.1959C21.9184 27.1959 20.085 28.8888 20.085 30.977V36.0186H18.915V30.977C18.915 28.8888 17.0816 27.1959 14.82 27.1959C12.5584 27.1959 10.725 28.8888 10.725 30.977V36.0186H9.555V31.0671C9.555 28.9592 7.73042 27.2447 5.46 27.197V27.1959H5.3625H0V26.1155H5.46C7.72161 26.1155 9.555 24.4227 9.555 22.3344C9.555 20.2461 7.72161 18.5532 5.46 18.5532H0V17.4729H5.46C7.72161 17.4729 9.555 15.78 9.555 13.6917C9.555 11.6034 7.72161 9.91051 5.46 9.91051H0V8.83018ZM14.82 17.4729C17.0816 17.4729 18.915 15.78 18.915 13.6917C18.915 11.6034 17.0816 9.91051 14.82 9.91051C12.5584 9.91051 10.725 11.6034 10.725 13.6917C10.725 15.78 12.5584 17.4729 14.82 17.4729ZM24.18 17.4729C26.4416 17.4729 28.275 15.78 28.275 13.6917C28.275 11.6034 26.4416 9.91051 24.18 9.91051C21.9184 9.91051 20.085 11.6034 20.085 13.6917C20.085 15.78 21.9184 17.4729 24.18 17.4729ZM18.915 22.3344C18.915 24.4227 17.0816 26.1155 14.82 26.1155C12.5584 26.1155 10.725 24.4227 10.725 22.3344C10.725 20.2461 12.5584 18.5532 14.82 18.5532C17.0816 18.5532 18.915 20.2461 18.915 22.3344ZM24.18 26.1155C26.4416 26.1155 28.275 24.4227 28.275 22.3344C28.275 20.2461 26.4416 18.5532 24.18 18.5532C21.9184 18.5532 20.085 20.2461 20.085 22.3344C20.085 24.4227 21.9184 26.1155 24.18 26.1155Z" fill="black"/>
</svg>
